<mxfile host="app.diagrams.net" agent="Mozilla/5.0 (Windows NT 10.0; Win64; x64) AppleWebKit/537.36 (KHTML, like Gecko) Chrome/131.0.0.0 Safari/537.36" version="26.0.5">
  <diagram name="Страница — 1" id="hzqAy71SiCbuJSQjPSbe">
    <mxGraphModel dx="3694" dy="1451" grid="1" gridSize="10" guides="1" tooltips="1" connect="1" arrows="1" fold="1" page="1" pageScale="1" pageWidth="827" pageHeight="1169" math="0" shadow="0">
      <root>
        <mxCell id="0" />
        <mxCell id="1" parent="0" />
        <mxCell id="2Nm8pulBpNAmHq24tdNc-4" style="edgeStyle=orthogonalEdgeStyle;rounded=0;orthogonalLoop=1;jettySize=auto;html=1;entryX=0;entryY=0.5;entryDx=0;entryDy=0;" edge="1" parent="1" source="2Nm8pulBpNAmHq24tdNc-2" target="2Nm8pulBpNAmHq24tdNc-3">
          <mxGeometry relative="1" as="geometry" />
        </mxCell>
        <mxCell id="2Nm8pulBpNAmHq24tdNc-6" value="Запись в бд id" style="edgeStyle=orthogonalEdgeStyle;rounded=0;orthogonalLoop=1;jettySize=auto;html=1;" edge="1" parent="1" source="2Nm8pulBpNAmHq24tdNc-2" target="2Nm8pulBpNAmHq24tdNc-5">
          <mxGeometry x="0.1" y="14" relative="1" as="geometry">
            <Array as="points">
              <mxPoint x="160" y="390" />
            </Array>
            <mxPoint x="-10" y="4" as="offset" />
          </mxGeometry>
        </mxCell>
        <mxCell id="2Nm8pulBpNAmHq24tdNc-2" value="Приветствие" style="rounded=1;whiteSpace=wrap;html=1;" vertex="1" parent="1">
          <mxGeometry x="100" y="230" width="120" height="60" as="geometry" />
        </mxCell>
        <mxCell id="2Nm8pulBpNAmHq24tdNc-8" style="edgeStyle=orthogonalEdgeStyle;rounded=0;orthogonalLoop=1;jettySize=auto;html=1;" edge="1" parent="1" source="2Nm8pulBpNAmHq24tdNc-3">
          <mxGeometry relative="1" as="geometry">
            <mxPoint x="580" y="260" as="targetPoint" />
          </mxGeometry>
        </mxCell>
        <mxCell id="2Nm8pulBpNAmHq24tdNc-3" value="Регистрация:&lt;div&gt;Ввод Имени и даты рождения&lt;/div&gt;" style="rounded=1;whiteSpace=wrap;html=1;" vertex="1" parent="1">
          <mxGeometry x="354" y="230" width="120" height="60" as="geometry" />
        </mxCell>
        <mxCell id="2Nm8pulBpNAmHq24tdNc-82" style="edgeStyle=orthogonalEdgeStyle;rounded=0;orthogonalLoop=1;jettySize=auto;html=1;entryX=0.566;entryY=-0.025;entryDx=0;entryDy=0;entryPerimeter=0;" edge="1" parent="1" source="2Nm8pulBpNAmHq24tdNc-5" target="2Nm8pulBpNAmHq24tdNc-83">
          <mxGeometry relative="1" as="geometry">
            <mxPoint x="300" y="520" as="targetPoint" />
            <Array as="points">
              <mxPoint x="98" y="420" />
            </Array>
          </mxGeometry>
        </mxCell>
        <mxCell id="2Nm8pulBpNAmHq24tdNc-5" value="БД&lt;div&gt;Users&lt;/div&gt;" style="shape=cylinder3;whiteSpace=wrap;html=1;boundedLbl=1;backgroundOutline=1;size=15;" vertex="1" parent="1">
          <mxGeometry x="270" y="350" width="60" height="80" as="geometry" />
        </mxCell>
        <mxCell id="2Nm8pulBpNAmHq24tdNc-14" style="edgeStyle=orthogonalEdgeStyle;rounded=0;orthogonalLoop=1;jettySize=auto;html=1;" edge="1" parent="1" source="2Nm8pulBpNAmHq24tdNc-13">
          <mxGeometry relative="1" as="geometry">
            <mxPoint x="665" y="120" as="targetPoint" />
          </mxGeometry>
        </mxCell>
        <mxCell id="2Nm8pulBpNAmHq24tdNc-16" style="edgeStyle=orthogonalEdgeStyle;rounded=0;orthogonalLoop=1;jettySize=auto;html=1;entryX=0;entryY=0.5;entryDx=0;entryDy=0;" edge="1" parent="1" source="2Nm8pulBpNAmHq24tdNc-13" target="2Nm8pulBpNAmHq24tdNc-17">
          <mxGeometry relative="1" as="geometry">
            <mxPoint x="899.9999999999995" y="260" as="targetPoint" />
          </mxGeometry>
        </mxCell>
        <mxCell id="2Nm8pulBpNAmHq24tdNc-18" value="Выбрать услугу" style="edgeLabel;html=1;align=center;verticalAlign=middle;resizable=0;points=[];" vertex="1" connectable="0" parent="2Nm8pulBpNAmHq24tdNc-16">
          <mxGeometry x="0.2432" y="-3" relative="1" as="geometry">
            <mxPoint x="-55" y="-33" as="offset" />
          </mxGeometry>
        </mxCell>
        <mxCell id="2Nm8pulBpNAmHq24tdNc-23" style="edgeStyle=orthogonalEdgeStyle;rounded=0;orthogonalLoop=1;jettySize=auto;html=1;" edge="1" parent="1" source="2Nm8pulBpNAmHq24tdNc-13">
          <mxGeometry relative="1" as="geometry">
            <mxPoint x="665" y="410" as="targetPoint" />
          </mxGeometry>
        </mxCell>
        <mxCell id="2Nm8pulBpNAmHq24tdNc-48" style="edgeStyle=orthogonalEdgeStyle;rounded=0;orthogonalLoop=1;jettySize=auto;html=1;entryX=0;entryY=0.5;entryDx=0;entryDy=0;" edge="1" parent="1" source="2Nm8pulBpNAmHq24tdNc-13" target="2Nm8pulBpNAmHq24tdNc-47">
          <mxGeometry relative="1" as="geometry">
            <Array as="points">
              <mxPoint x="925" y="230" />
              <mxPoint x="925" y="90" />
            </Array>
          </mxGeometry>
        </mxCell>
        <mxCell id="2Nm8pulBpNAmHq24tdNc-13" value="Меню:&lt;div&gt;Выбрать услугу&lt;/div&gt;&lt;div&gt;Выбрать специалиста&lt;/div&gt;&lt;div&gt;О нас&lt;/div&gt;&lt;div&gt;Просмотр записей&lt;/div&gt;" style="shape=parallelogram;perimeter=parallelogramPerimeter;whiteSpace=wrap;html=1;fixedSize=1;" vertex="1" parent="1">
          <mxGeometry x="580" y="220" width="170" height="80" as="geometry" />
        </mxCell>
        <mxCell id="2Nm8pulBpNAmHq24tdNc-15" value="Справочная информация" style="rounded=0;whiteSpace=wrap;html=1;" vertex="1" parent="1">
          <mxGeometry x="605" y="60" width="120" height="60" as="geometry" />
        </mxCell>
        <mxCell id="2Nm8pulBpNAmHq24tdNc-21" value="Переход к выбору специалиста" style="edgeStyle=orthogonalEdgeStyle;rounded=0;orthogonalLoop=1;jettySize=auto;html=1;" edge="1" parent="1" source="2Nm8pulBpNAmHq24tdNc-17">
          <mxGeometry relative="1" as="geometry">
            <mxPoint x="1049.9999999999995" y="400" as="targetPoint" />
          </mxGeometry>
        </mxCell>
        <mxCell id="2Nm8pulBpNAmHq24tdNc-17" value="Список из бд:" style="rounded=1;whiteSpace=wrap;html=1;" vertex="1" parent="1">
          <mxGeometry x="990" y="230" width="120" height="60" as="geometry" />
        </mxCell>
        <mxCell id="2Nm8pulBpNAmHq24tdNc-32" style="edgeStyle=orthogonalEdgeStyle;rounded=0;orthogonalLoop=1;jettySize=auto;html=1;entryX=1;entryY=0.5;entryDx=0;entryDy=0;exitX=0;exitY=0.5;exitDx=0;exitDy=0;exitPerimeter=0;" edge="1" parent="1" source="2Nm8pulBpNAmHq24tdNc-19" target="2Nm8pulBpNAmHq24tdNc-29">
          <mxGeometry relative="1" as="geometry">
            <Array as="points">
              <mxPoint x="790" y="620" />
            </Array>
          </mxGeometry>
        </mxCell>
        <mxCell id="2Nm8pulBpNAmHq24tdNc-39" style="edgeStyle=orthogonalEdgeStyle;rounded=0;orthogonalLoop=1;jettySize=auto;html=1;exitX=1;exitY=0.5;exitDx=0;exitDy=0;exitPerimeter=0;entryX=0.25;entryY=1;entryDx=0;entryDy=0;" edge="1" parent="1" source="2Nm8pulBpNAmHq24tdNc-19" target="2Nm8pulBpNAmHq24tdNc-17">
          <mxGeometry relative="1" as="geometry">
            <Array as="points">
              <mxPoint x="880" y="320" />
              <mxPoint x="1020" y="320" />
            </Array>
          </mxGeometry>
        </mxCell>
        <mxCell id="2Nm8pulBpNAmHq24tdNc-19" value="Услуги" style="shape=cylinder3;whiteSpace=wrap;html=1;boundedLbl=1;backgroundOutline=1;size=15;" vertex="1" parent="1">
          <mxGeometry x="840" y="360" width="90" height="80" as="geometry" />
        </mxCell>
        <mxCell id="2Nm8pulBpNAmHq24tdNc-34" style="edgeStyle=orthogonalEdgeStyle;rounded=0;orthogonalLoop=1;jettySize=auto;html=1;exitX=0.5;exitY=1;exitDx=0;exitDy=0;entryX=0.5;entryY=0;entryDx=0;entryDy=0;" edge="1" parent="1" source="2Nm8pulBpNAmHq24tdNc-22" target="2Nm8pulBpNAmHq24tdNc-35">
          <mxGeometry relative="1" as="geometry">
            <mxPoint x="1149.9999999999995" y="640" as="targetPoint" />
          </mxGeometry>
        </mxCell>
        <mxCell id="2Nm8pulBpNAmHq24tdNc-22" value="Выбор спеца на услугу" style="rounded=1;whiteSpace=wrap;html=1;" vertex="1" parent="1">
          <mxGeometry x="990" y="410" width="120" height="60" as="geometry" />
        </mxCell>
        <mxCell id="2Nm8pulBpNAmHq24tdNc-28" style="edgeStyle=orthogonalEdgeStyle;rounded=0;orthogonalLoop=1;jettySize=auto;html=1;entryX=0.5;entryY=0;entryDx=0;entryDy=0;" edge="1" parent="1" source="2Nm8pulBpNAmHq24tdNc-24" target="2Nm8pulBpNAmHq24tdNc-29">
          <mxGeometry relative="1" as="geometry">
            <mxPoint x="520" y="440" as="targetPoint" />
          </mxGeometry>
        </mxCell>
        <mxCell id="2Nm8pulBpNAmHq24tdNc-24" value="Выбор специалиста из доступных в бд" style="rounded=1;whiteSpace=wrap;html=1;" vertex="1" parent="1">
          <mxGeometry x="570" y="410" width="120" height="60" as="geometry" />
        </mxCell>
        <mxCell id="2Nm8pulBpNAmHq24tdNc-26" style="edgeStyle=orthogonalEdgeStyle;rounded=0;orthogonalLoop=1;jettySize=auto;html=1;entryX=1;entryY=0.5;entryDx=0;entryDy=0;" edge="1" parent="1" source="2Nm8pulBpNAmHq24tdNc-25" target="2Nm8pulBpNAmHq24tdNc-24">
          <mxGeometry relative="1" as="geometry" />
        </mxCell>
        <mxCell id="2Nm8pulBpNAmHq24tdNc-27" style="edgeStyle=orthogonalEdgeStyle;rounded=0;orthogonalLoop=1;jettySize=auto;html=1;entryX=0;entryY=0.5;entryDx=0;entryDy=0;" edge="1" parent="1" source="2Nm8pulBpNAmHq24tdNc-25" target="2Nm8pulBpNAmHq24tdNc-22">
          <mxGeometry relative="1" as="geometry" />
        </mxCell>
        <mxCell id="2Nm8pulBpNAmHq24tdNc-144" style="edgeStyle=orthogonalEdgeStyle;rounded=0;orthogonalLoop=1;jettySize=auto;html=1;" edge="1" parent="1" source="2Nm8pulBpNAmHq24tdNc-25" target="2Nm8pulBpNAmHq24tdNc-141">
          <mxGeometry relative="1" as="geometry" />
        </mxCell>
        <mxCell id="2Nm8pulBpNAmHq24tdNc-25" value="Специалисты" style="shape=cylinder3;whiteSpace=wrap;html=1;boundedLbl=1;backgroundOutline=1;size=15;" vertex="1" parent="1">
          <mxGeometry x="840" y="480" width="90" height="80" as="geometry" />
        </mxCell>
        <mxCell id="2Nm8pulBpNAmHq24tdNc-38" style="edgeStyle=orthogonalEdgeStyle;rounded=0;orthogonalLoop=1;jettySize=auto;html=1;exitX=0.5;exitY=1;exitDx=0;exitDy=0;entryX=0;entryY=0.5;entryDx=0;entryDy=0;" edge="1" parent="1" source="2Nm8pulBpNAmHq24tdNc-29" target="2Nm8pulBpNAmHq24tdNc-35">
          <mxGeometry relative="1" as="geometry" />
        </mxCell>
        <mxCell id="2Nm8pulBpNAmHq24tdNc-29" value="Выбор услуг специалиста" style="rounded=1;whiteSpace=wrap;html=1;" vertex="1" parent="1">
          <mxGeometry x="570" y="590" width="120" height="60" as="geometry" />
        </mxCell>
        <mxCell id="2Nm8pulBpNAmHq24tdNc-41" style="edgeStyle=orthogonalEdgeStyle;rounded=0;orthogonalLoop=1;jettySize=auto;html=1;entryX=0;entryY=0.5;entryDx=0;entryDy=0;" edge="1" parent="1" source="2Nm8pulBpNAmHq24tdNc-35" target="2Nm8pulBpNAmHq24tdNc-42">
          <mxGeometry relative="1" as="geometry">
            <mxPoint x="1269.9999999999995" y="690" as="targetPoint" />
          </mxGeometry>
        </mxCell>
        <mxCell id="2Nm8pulBpNAmHq24tdNc-35" value="Выбор свободной даты" style="rounded=1;whiteSpace=wrap;html=1;" vertex="1" parent="1">
          <mxGeometry x="1030" y="660" width="120" height="60" as="geometry" />
        </mxCell>
        <mxCell id="2Nm8pulBpNAmHq24tdNc-44" style="edgeStyle=orthogonalEdgeStyle;rounded=0;orthogonalLoop=1;jettySize=auto;html=1;" edge="1" parent="1" source="2Nm8pulBpNAmHq24tdNc-42" target="2Nm8pulBpNAmHq24tdNc-43">
          <mxGeometry relative="1" as="geometry" />
        </mxCell>
        <mxCell id="2Nm8pulBpNAmHq24tdNc-45" style="edgeStyle=orthogonalEdgeStyle;rounded=0;orthogonalLoop=1;jettySize=auto;html=1;" edge="1" parent="1" source="2Nm8pulBpNAmHq24tdNc-42">
          <mxGeometry relative="1" as="geometry">
            <mxPoint x="1490" y="690" as="targetPoint" />
          </mxGeometry>
        </mxCell>
        <mxCell id="2Nm8pulBpNAmHq24tdNc-61" style="edgeStyle=orthogonalEdgeStyle;rounded=0;orthogonalLoop=1;jettySize=auto;html=1;" edge="1" parent="1" source="2Nm8pulBpNAmHq24tdNc-42">
          <mxGeometry relative="1" as="geometry">
            <mxPoint x="1450" y="560" as="targetPoint" />
            <Array as="points">
              <mxPoint x="1450" y="670" />
            </Array>
          </mxGeometry>
        </mxCell>
        <mxCell id="2Nm8pulBpNAmHq24tdNc-42" value="Бронирование времени с настройкой уведомления и комментариями" style="rounded=1;whiteSpace=wrap;html=1;" vertex="1" parent="1">
          <mxGeometry x="1290" y="645" width="130" height="90" as="geometry" />
        </mxCell>
        <mxCell id="2Nm8pulBpNAmHq24tdNc-54" style="edgeStyle=orthogonalEdgeStyle;rounded=0;orthogonalLoop=1;jettySize=auto;html=1;entryX=0.5;entryY=1;entryDx=0;entryDy=0;" edge="1" parent="1" source="2Nm8pulBpNAmHq24tdNc-43" target="2Nm8pulBpNAmHq24tdNc-47">
          <mxGeometry relative="1" as="geometry" />
        </mxCell>
        <mxCell id="2Nm8pulBpNAmHq24tdNc-43" value="Записи" style="shape=cylinder3;whiteSpace=wrap;html=1;boundedLbl=1;backgroundOutline=1;size=15;" vertex="1" parent="1">
          <mxGeometry x="1260" y="320" width="90" height="80" as="geometry" />
        </mxCell>
        <mxCell id="2Nm8pulBpNAmHq24tdNc-46" value="Отправка уведомления&lt;div&gt;(При необходимости)&lt;/div&gt;" style="rounded=1;whiteSpace=wrap;html=1;" vertex="1" parent="1">
          <mxGeometry x="1490" y="660" width="140" height="90" as="geometry" />
        </mxCell>
        <mxCell id="2Nm8pulBpNAmHq24tdNc-50" style="edgeStyle=orthogonalEdgeStyle;rounded=0;orthogonalLoop=1;jettySize=auto;html=1;" edge="1" parent="1" source="2Nm8pulBpNAmHq24tdNc-47" target="2Nm8pulBpNAmHq24tdNc-49">
          <mxGeometry relative="1" as="geometry" />
        </mxCell>
        <mxCell id="2Nm8pulBpNAmHq24tdNc-47" value="Посмотреть записи" style="rounded=0;whiteSpace=wrap;html=1;" vertex="1" parent="1">
          <mxGeometry x="1100" y="60" width="120" height="60" as="geometry" />
        </mxCell>
        <mxCell id="2Nm8pulBpNAmHq24tdNc-51" value="нет" style="edgeStyle=orthogonalEdgeStyle;rounded=0;orthogonalLoop=1;jettySize=auto;html=1;entryX=0;entryY=0.5;entryDx=0;entryDy=0;" edge="1" parent="1" source="2Nm8pulBpNAmHq24tdNc-49" target="2Nm8pulBpNAmHq24tdNc-52">
          <mxGeometry relative="1" as="geometry">
            <mxPoint x="1520" y="110" as="targetPoint" />
            <Array as="points" />
          </mxGeometry>
        </mxCell>
        <mxCell id="2Nm8pulBpNAmHq24tdNc-53" style="edgeStyle=orthogonalEdgeStyle;rounded=0;orthogonalLoop=1;jettySize=auto;html=1;" edge="1" parent="1" source="2Nm8pulBpNAmHq24tdNc-49">
          <mxGeometry relative="1" as="geometry">
            <mxPoint x="1380" y="200" as="targetPoint" />
          </mxGeometry>
        </mxCell>
        <mxCell id="2Nm8pulBpNAmHq24tdNc-49" value="Записи есть?" style="rhombus;whiteSpace=wrap;html=1;" vertex="1" parent="1">
          <mxGeometry x="1320" y="50" width="120" height="80" as="geometry" />
        </mxCell>
        <mxCell id="2Nm8pulBpNAmHq24tdNc-52" value="Записей нет" style="rounded=0;whiteSpace=wrap;html=1;" vertex="1" parent="1">
          <mxGeometry x="1510" y="60" width="120" height="60" as="geometry" />
        </mxCell>
        <mxCell id="2Nm8pulBpNAmHq24tdNc-56" style="edgeStyle=orthogonalEdgeStyle;rounded=0;orthogonalLoop=1;jettySize=auto;html=1;" edge="1" parent="1" source="2Nm8pulBpNAmHq24tdNc-55">
          <mxGeometry relative="1" as="geometry">
            <mxPoint x="1529.9999999999995" y="230" as="targetPoint" />
          </mxGeometry>
        </mxCell>
        <mxCell id="2Nm8pulBpNAmHq24tdNc-58" style="edgeStyle=orthogonalEdgeStyle;rounded=0;orthogonalLoop=1;jettySize=auto;html=1;entryX=0.5;entryY=0;entryDx=0;entryDy=0;" edge="1" parent="1" source="2Nm8pulBpNAmHq24tdNc-55" target="2Nm8pulBpNAmHq24tdNc-59">
          <mxGeometry relative="1" as="geometry">
            <mxPoint x="1419.9999999999995" y="330" as="targetPoint" />
          </mxGeometry>
        </mxCell>
        <mxCell id="2Nm8pulBpNAmHq24tdNc-55" value="Инфа о записях с кнопкой отмены" style="rounded=1;whiteSpace=wrap;html=1;" vertex="1" parent="1">
          <mxGeometry x="1360" y="200" width="120" height="60" as="geometry" />
        </mxCell>
        <mxCell id="2Nm8pulBpNAmHq24tdNc-57" value="Назад в меню" style="rounded=1;whiteSpace=wrap;html=1;" vertex="1" parent="1">
          <mxGeometry x="1530" y="200" width="120" height="60" as="geometry" />
        </mxCell>
        <mxCell id="2Nm8pulBpNAmHq24tdNc-60" style="edgeStyle=orthogonalEdgeStyle;rounded=0;orthogonalLoop=1;jettySize=auto;html=1;" edge="1" parent="1" source="2Nm8pulBpNAmHq24tdNc-59" target="2Nm8pulBpNAmHq24tdNc-43">
          <mxGeometry relative="1" as="geometry" />
        </mxCell>
        <mxCell id="2Nm8pulBpNAmHq24tdNc-63" style="edgeStyle=orthogonalEdgeStyle;rounded=0;orthogonalLoop=1;jettySize=auto;html=1;entryX=0.5;entryY=0;entryDx=0;entryDy=0;" edge="1" parent="1" source="2Nm8pulBpNAmHq24tdNc-59" target="2Nm8pulBpNAmHq24tdNc-62">
          <mxGeometry relative="1" as="geometry" />
        </mxCell>
        <mxCell id="2Nm8pulBpNAmHq24tdNc-59" value="Отменить" style="rounded=1;whiteSpace=wrap;html=1;" vertex="1" parent="1">
          <mxGeometry x="1430" y="330" width="120" height="60" as="geometry" />
        </mxCell>
        <mxCell id="2Nm8pulBpNAmHq24tdNc-62" value="Сообщение мастеру" style="rounded=1;whiteSpace=wrap;html=1;" vertex="1" parent="1">
          <mxGeometry x="1440" y="500" width="120" height="60" as="geometry" />
        </mxCell>
        <mxCell id="2Nm8pulBpNAmHq24tdNc-64" value="Пользователь" style="text;html=1;align=center;verticalAlign=middle;resizable=0;points=[];autosize=1;strokeColor=none;fillColor=none;" vertex="1" parent="1">
          <mxGeometry x="-10" y="250" width="100" height="30" as="geometry" />
        </mxCell>
        <mxCell id="2Nm8pulBpNAmHq24tdNc-65" value="Админ" style="text;html=1;align=center;verticalAlign=middle;resizable=0;points=[];autosize=1;strokeColor=none;fillColor=none;" vertex="1" parent="1">
          <mxGeometry x="-320" y="798" width="60" height="30" as="geometry" />
        </mxCell>
        <mxCell id="2Nm8pulBpNAmHq24tdNc-67" value="Добавить&lt;div&gt;Специалиста&lt;/div&gt;" style="edgeStyle=orthogonalEdgeStyle;rounded=0;orthogonalLoop=1;jettySize=auto;html=1;entryX=0;entryY=0.5;entryDx=0;entryDy=0;" edge="1" parent="1" source="2Nm8pulBpNAmHq24tdNc-66" target="2Nm8pulBpNAmHq24tdNc-68">
          <mxGeometry relative="1" as="geometry">
            <mxPoint x="380" y="813" as="targetPoint" />
          </mxGeometry>
        </mxCell>
        <mxCell id="2Nm8pulBpNAmHq24tdNc-78" style="edgeStyle=orthogonalEdgeStyle;rounded=0;orthogonalLoop=1;jettySize=auto;html=1;entryX=0.5;entryY=1;entryDx=0;entryDy=0;" edge="1" parent="1" source="2Nm8pulBpNAmHq24tdNc-66" target="2Nm8pulBpNAmHq24tdNc-71">
          <mxGeometry relative="1" as="geometry" />
        </mxCell>
        <mxCell id="2Nm8pulBpNAmHq24tdNc-138" style="edgeStyle=orthogonalEdgeStyle;rounded=0;orthogonalLoop=1;jettySize=auto;html=1;entryX=0;entryY=0.5;entryDx=0;entryDy=0;" edge="1" parent="1" source="2Nm8pulBpNAmHq24tdNc-66" target="2Nm8pulBpNAmHq24tdNc-139">
          <mxGeometry relative="1" as="geometry">
            <mxPoint x="280" y="730" as="targetPoint" />
            <Array as="points">
              <mxPoint x="-20" y="800" />
              <mxPoint x="-20" y="680" />
            </Array>
          </mxGeometry>
        </mxCell>
        <mxCell id="2Nm8pulBpNAmHq24tdNc-66" value="Меню:&lt;div&gt;- Создать рассылку&lt;/div&gt;&lt;div&gt;- Добавить специалиста&lt;/div&gt;&lt;div&gt;- Составить рабочий график&lt;/div&gt;" style="rounded=1;whiteSpace=wrap;html=1;" vertex="1" parent="1">
          <mxGeometry x="-250" y="783" width="140" height="87" as="geometry" />
        </mxCell>
        <mxCell id="2Nm8pulBpNAmHq24tdNc-69" style="edgeStyle=orthogonalEdgeStyle;rounded=0;orthogonalLoop=1;jettySize=auto;html=1;" edge="1" parent="1" source="2Nm8pulBpNAmHq24tdNc-68" target="2Nm8pulBpNAmHq24tdNc-25">
          <mxGeometry relative="1" as="geometry" />
        </mxCell>
        <mxCell id="2Nm8pulBpNAmHq24tdNc-68" value="ник тг" style="rounded=1;whiteSpace=wrap;html=1;" vertex="1" parent="1">
          <mxGeometry x="230" y="796.5" width="120" height="60" as="geometry" />
        </mxCell>
        <mxCell id="2Nm8pulBpNAmHq24tdNc-84" style="edgeStyle=orthogonalEdgeStyle;rounded=0;orthogonalLoop=1;jettySize=auto;html=1;entryX=0.5;entryY=1;entryDx=0;entryDy=0;" edge="1" parent="1" source="2Nm8pulBpNAmHq24tdNc-71" target="2Nm8pulBpNAmHq24tdNc-75">
          <mxGeometry relative="1" as="geometry" />
        </mxCell>
        <mxCell id="2Nm8pulBpNAmHq24tdNc-71" value="Создать рассылку" style="rounded=1;whiteSpace=wrap;html=1;" vertex="1" parent="1">
          <mxGeometry x="-240" y="680" width="120" height="60" as="geometry" />
        </mxCell>
        <mxCell id="2Nm8pulBpNAmHq24tdNc-72" style="edgeStyle=orthogonalEdgeStyle;rounded=0;orthogonalLoop=1;jettySize=auto;html=1;exitX=0.5;exitY=1;exitDx=0;exitDy=0;entryX=1;entryY=0.5;entryDx=0;entryDy=0;entryPerimeter=0;" edge="1" parent="1" source="2Nm8pulBpNAmHq24tdNc-3" target="2Nm8pulBpNAmHq24tdNc-5">
          <mxGeometry relative="1" as="geometry">
            <Array as="points">
              <mxPoint x="414" y="390" />
            </Array>
          </mxGeometry>
        </mxCell>
        <mxCell id="2Nm8pulBpNAmHq24tdNc-85" style="edgeStyle=orthogonalEdgeStyle;rounded=0;orthogonalLoop=1;jettySize=auto;html=1;" edge="1" parent="1" source="2Nm8pulBpNAmHq24tdNc-75" target="2Nm8pulBpNAmHq24tdNc-77">
          <mxGeometry relative="1" as="geometry" />
        </mxCell>
        <mxCell id="2Nm8pulBpNAmHq24tdNc-75" value="Ввод текста рассылки" style="rounded=1;whiteSpace=wrap;html=1;" vertex="1" parent="1">
          <mxGeometry x="-235" y="590" width="110" height="60" as="geometry" />
        </mxCell>
        <mxCell id="2Nm8pulBpNAmHq24tdNc-86" style="edgeStyle=orthogonalEdgeStyle;rounded=0;orthogonalLoop=1;jettySize=auto;html=1;entryX=0;entryY=0.5;entryDx=0;entryDy=0;" edge="1" parent="1" source="2Nm8pulBpNAmHq24tdNc-77" target="2Nm8pulBpNAmHq24tdNc-83">
          <mxGeometry relative="1" as="geometry" />
        </mxCell>
        <mxCell id="2Nm8pulBpNAmHq24tdNc-77" value="Подтверждение" style="rounded=1;whiteSpace=wrap;html=1;" vertex="1" parent="1">
          <mxGeometry x="-240" y="500" width="120" height="60" as="geometry" />
        </mxCell>
        <mxCell id="2Nm8pulBpNAmHq24tdNc-83" value="Рассылка" style="rounded=1;whiteSpace=wrap;html=1;" vertex="1" parent="1">
          <mxGeometry x="30" y="490" width="120" height="60" as="geometry" />
        </mxCell>
        <mxCell id="2Nm8pulBpNAmHq24tdNc-89" style="edgeStyle=orthogonalEdgeStyle;rounded=0;orthogonalLoop=1;jettySize=auto;html=1;entryX=0;entryY=0.5;entryDx=0;entryDy=0;" edge="1" parent="1" source="2Nm8pulBpNAmHq24tdNc-87" target="2Nm8pulBpNAmHq24tdNc-90">
          <mxGeometry relative="1" as="geometry">
            <mxPoint x="200" y="910" as="targetPoint" />
            <Array as="points">
              <mxPoint x="150" y="920" />
            </Array>
          </mxGeometry>
        </mxCell>
        <mxCell id="2Nm8pulBpNAmHq24tdNc-92" style="edgeStyle=orthogonalEdgeStyle;rounded=0;orthogonalLoop=1;jettySize=auto;html=1;" edge="1" parent="1" source="2Nm8pulBpNAmHq24tdNc-87">
          <mxGeometry relative="1" as="geometry">
            <mxPoint x="600" y="1020" as="targetPoint" />
          </mxGeometry>
        </mxCell>
        <mxCell id="2Nm8pulBpNAmHq24tdNc-94" style="edgeStyle=orthogonalEdgeStyle;rounded=0;orthogonalLoop=1;jettySize=auto;html=1;" edge="1" parent="1" source="2Nm8pulBpNAmHq24tdNc-87">
          <mxGeometry relative="1" as="geometry">
            <mxPoint x="150" y="1100" as="targetPoint" />
          </mxGeometry>
        </mxCell>
        <mxCell id="2Nm8pulBpNAmHq24tdNc-87" value="&lt;div&gt;Мои записи&lt;/div&gt;&lt;div&gt;Добавить услугу&lt;/div&gt;&lt;div&gt;Изменить услугу&lt;/div&gt;&lt;div&gt;&lt;br&gt;&lt;/div&gt;" style="rounded=1;whiteSpace=wrap;html=1;" vertex="1" parent="1">
          <mxGeometry x="90" y="970" width="120" height="90" as="geometry" />
        </mxCell>
        <mxCell id="2Nm8pulBpNAmHq24tdNc-88" value="Мастер" style="text;html=1;align=center;verticalAlign=middle;resizable=0;points=[];autosize=1;strokeColor=none;fillColor=none;" vertex="1" parent="1">
          <mxGeometry y="993" width="70" height="30" as="geometry" />
        </mxCell>
        <mxCell id="2Nm8pulBpNAmHq24tdNc-90" value="Добавить услугу" style="rounded=0;whiteSpace=wrap;html=1;" vertex="1" parent="1">
          <mxGeometry x="540" y="890" width="120" height="60" as="geometry" />
        </mxCell>
        <mxCell id="2Nm8pulBpNAmHq24tdNc-91" style="edgeStyle=orthogonalEdgeStyle;rounded=0;orthogonalLoop=1;jettySize=auto;html=1;entryX=0.145;entryY=1;entryDx=0;entryDy=-4.35;entryPerimeter=0;" edge="1" parent="1" source="2Nm8pulBpNAmHq24tdNc-90" target="2Nm8pulBpNAmHq24tdNc-19">
          <mxGeometry relative="1" as="geometry">
            <Array as="points">
              <mxPoint x="830" y="920" />
              <mxPoint x="830" y="436" />
            </Array>
          </mxGeometry>
        </mxCell>
        <mxCell id="2Nm8pulBpNAmHq24tdNc-99" style="edgeStyle=orthogonalEdgeStyle;rounded=0;orthogonalLoop=1;jettySize=auto;html=1;" edge="1" parent="1" source="2Nm8pulBpNAmHq24tdNc-93">
          <mxGeometry relative="1" as="geometry">
            <mxPoint x="830" y="840" as="targetPoint" />
          </mxGeometry>
        </mxCell>
        <mxCell id="2Nm8pulBpNAmHq24tdNc-93" value="Изменить услугу" style="rounded=0;whiteSpace=wrap;html=1;" vertex="1" parent="1">
          <mxGeometry x="605" y="990" width="120" height="60" as="geometry" />
        </mxCell>
        <mxCell id="2Nm8pulBpNAmHq24tdNc-101" style="edgeStyle=orthogonalEdgeStyle;rounded=0;orthogonalLoop=1;jettySize=auto;html=1;entryX=0;entryY=0.5;entryDx=0;entryDy=0;" edge="1" parent="1" source="2Nm8pulBpNAmHq24tdNc-95">
          <mxGeometry relative="1" as="geometry">
            <mxPoint x="310.0000000000002" y="1130" as="targetPoint" />
          </mxGeometry>
        </mxCell>
        <mxCell id="2Nm8pulBpNAmHq24tdNc-95" value="Сегодня&lt;div&gt;Завтра&lt;/div&gt;&lt;div&gt;Все&lt;/div&gt;" style="rounded=1;whiteSpace=wrap;html=1;" vertex="1" parent="1">
          <mxGeometry x="90" y="1100" width="120" height="60" as="geometry" />
        </mxCell>
        <mxCell id="2Nm8pulBpNAmHq24tdNc-120" style="edgeStyle=orthogonalEdgeStyle;rounded=0;orthogonalLoop=1;jettySize=auto;html=1;" edge="1" parent="1" source="2Nm8pulBpNAmHq24tdNc-105">
          <mxGeometry relative="1" as="geometry">
            <mxPoint x="460" y="1130" as="targetPoint" />
          </mxGeometry>
        </mxCell>
        <mxCell id="2Nm8pulBpNAmHq24tdNc-124" value="Да" style="edgeLabel;html=1;align=center;verticalAlign=middle;resizable=0;points=[];" vertex="1" connectable="0" parent="2Nm8pulBpNAmHq24tdNc-120">
          <mxGeometry x="0.0604" y="1" relative="1" as="geometry">
            <mxPoint as="offset" />
          </mxGeometry>
        </mxCell>
        <mxCell id="2Nm8pulBpNAmHq24tdNc-105" value="Есть записи?" style="rhombus;whiteSpace=wrap;html=1;" vertex="1" parent="1">
          <mxGeometry x="310" y="1090" width="100" height="80" as="geometry" />
        </mxCell>
        <mxCell id="2Nm8pulBpNAmHq24tdNc-106" value="Услуга" style="swimlane;fontStyle=0;childLayout=stackLayout;horizontal=1;startSize=30;horizontalStack=0;resizeParent=1;resizeParentMax=0;resizeLast=0;collapsible=1;marginBottom=0;whiteSpace=wrap;html=1;" vertex="1" parent="1">
          <mxGeometry x="-360" y="200" width="140" height="120" as="geometry" />
        </mxCell>
        <mxCell id="2Nm8pulBpNAmHq24tdNc-107" value="Мастер (наверно по айди)" style="text;strokeColor=none;fillColor=none;align=left;verticalAlign=middle;spacingLeft=4;spacingRight=4;overflow=hidden;points=[[0,0.5],[1,0.5]];portConstraint=eastwest;rotatable=0;whiteSpace=wrap;html=1;" vertex="1" parent="2Nm8pulBpNAmHq24tdNc-106">
          <mxGeometry y="30" width="140" height="30" as="geometry" />
        </mxCell>
        <mxCell id="2Nm8pulBpNAmHq24tdNc-108" value="Цена" style="text;strokeColor=none;fillColor=none;align=left;verticalAlign=middle;spacingLeft=4;spacingRight=4;overflow=hidden;points=[[0,0.5],[1,0.5]];portConstraint=eastwest;rotatable=0;whiteSpace=wrap;html=1;" vertex="1" parent="2Nm8pulBpNAmHq24tdNc-106">
          <mxGeometry y="60" width="140" height="30" as="geometry" />
        </mxCell>
        <mxCell id="2Nm8pulBpNAmHq24tdNc-109" value="Описание&lt;div&gt;Фото&lt;/div&gt;" style="text;strokeColor=none;fillColor=none;align=left;verticalAlign=middle;spacingLeft=4;spacingRight=4;overflow=hidden;points=[[0,0.5],[1,0.5]];portConstraint=eastwest;rotatable=0;whiteSpace=wrap;html=1;" vertex="1" parent="2Nm8pulBpNAmHq24tdNc-106">
          <mxGeometry y="90" width="140" height="30" as="geometry" />
        </mxCell>
        <mxCell id="2Nm8pulBpNAmHq24tdNc-111" value="Специалисты" style="swimlane;fontStyle=0;childLayout=stackLayout;horizontal=1;startSize=30;horizontalStack=0;resizeParent=1;resizeParentMax=0;resizeLast=0;collapsible=1;marginBottom=0;whiteSpace=wrap;html=1;" vertex="1" parent="1">
          <mxGeometry x="-553" y="200" width="140" height="120" as="geometry" />
        </mxCell>
        <mxCell id="2Nm8pulBpNAmHq24tdNc-112" value="Имя мастера" style="text;strokeColor=none;fillColor=none;align=left;verticalAlign=middle;spacingLeft=4;spacingRight=4;overflow=hidden;points=[[0,0.5],[1,0.5]];portConstraint=eastwest;rotatable=0;whiteSpace=wrap;html=1;" vertex="1" parent="2Nm8pulBpNAmHq24tdNc-111">
          <mxGeometry y="30" width="140" height="30" as="geometry" />
        </mxCell>
        <mxCell id="2Nm8pulBpNAmHq24tdNc-113" value="тг айди" style="text;strokeColor=none;fillColor=none;align=left;verticalAlign=middle;spacingLeft=4;spacingRight=4;overflow=hidden;points=[[0,0.5],[1,0.5]];portConstraint=eastwest;rotatable=0;whiteSpace=wrap;html=1;" vertex="1" parent="2Nm8pulBpNAmHq24tdNc-111">
          <mxGeometry y="60" width="140" height="30" as="geometry" />
        </mxCell>
        <mxCell id="2Nm8pulBpNAmHq24tdNc-114" value="Item 3" style="text;strokeColor=none;fillColor=none;align=left;verticalAlign=middle;spacingLeft=4;spacingRight=4;overflow=hidden;points=[[0,0.5],[1,0.5]];portConstraint=eastwest;rotatable=0;whiteSpace=wrap;html=1;" vertex="1" parent="2Nm8pulBpNAmHq24tdNc-111">
          <mxGeometry y="90" width="140" height="30" as="geometry" />
        </mxCell>
        <mxCell id="2Nm8pulBpNAmHq24tdNc-115" value="Users" style="swimlane;fontStyle=0;childLayout=stackLayout;horizontal=1;startSize=30;horizontalStack=0;resizeParent=1;resizeParentMax=0;resizeLast=0;collapsible=1;marginBottom=0;whiteSpace=wrap;html=1;" vertex="1" parent="1">
          <mxGeometry x="-740" y="200" width="140" height="120" as="geometry" />
        </mxCell>
        <mxCell id="2Nm8pulBpNAmHq24tdNc-116" value="Tg id" style="text;strokeColor=none;fillColor=none;align=left;verticalAlign=middle;spacingLeft=4;spacingRight=4;overflow=hidden;points=[[0,0.5],[1,0.5]];portConstraint=eastwest;rotatable=0;whiteSpace=wrap;html=1;" vertex="1" parent="2Nm8pulBpNAmHq24tdNc-115">
          <mxGeometry y="30" width="140" height="30" as="geometry" />
        </mxCell>
        <mxCell id="2Nm8pulBpNAmHq24tdNc-117" value="Др" style="text;strokeColor=none;fillColor=none;align=left;verticalAlign=middle;spacingLeft=4;spacingRight=4;overflow=hidden;points=[[0,0.5],[1,0.5]];portConstraint=eastwest;rotatable=0;whiteSpace=wrap;html=1;" vertex="1" parent="2Nm8pulBpNAmHq24tdNc-115">
          <mxGeometry y="60" width="140" height="30" as="geometry" />
        </mxCell>
        <mxCell id="2Nm8pulBpNAmHq24tdNc-118" value="Моб. номер&lt;div&gt;Имя&lt;/div&gt;" style="text;strokeColor=none;fillColor=none;align=left;verticalAlign=middle;spacingLeft=4;spacingRight=4;overflow=hidden;points=[[0,0.5],[1,0.5]];portConstraint=eastwest;rotatable=0;whiteSpace=wrap;html=1;" vertex="1" parent="2Nm8pulBpNAmHq24tdNc-115">
          <mxGeometry y="90" width="140" height="30" as="geometry" />
        </mxCell>
        <mxCell id="2Nm8pulBpNAmHq24tdNc-121" value="Вывод" style="rounded=1;whiteSpace=wrap;html=1;" vertex="1" parent="1">
          <mxGeometry x="460" y="1100" width="120" height="60" as="geometry" />
        </mxCell>
        <mxCell id="2Nm8pulBpNAmHq24tdNc-122" value="Записей нет" style="rounded=1;whiteSpace=wrap;html=1;" vertex="1" parent="1">
          <mxGeometry x="310" y="1230" width="120" height="60" as="geometry" />
        </mxCell>
        <mxCell id="2Nm8pulBpNAmHq24tdNc-123" style="edgeStyle=orthogonalEdgeStyle;rounded=0;orthogonalLoop=1;jettySize=auto;html=1;entryX=0.405;entryY=-0.021;entryDx=0;entryDy=0;entryPerimeter=0;" edge="1" parent="1" source="2Nm8pulBpNAmHq24tdNc-105" target="2Nm8pulBpNAmHq24tdNc-122">
          <mxGeometry relative="1" as="geometry" />
        </mxCell>
        <mxCell id="2Nm8pulBpNAmHq24tdNc-125" value="Нет" style="edgeLabel;html=1;align=center;verticalAlign=middle;resizable=0;points=[];" vertex="1" connectable="0" parent="2Nm8pulBpNAmHq24tdNc-123">
          <mxGeometry x="-0.4159" y="3" relative="1" as="geometry">
            <mxPoint as="offset" />
          </mxGeometry>
        </mxCell>
        <mxCell id="2Nm8pulBpNAmHq24tdNc-126" value="Инфо" style="swimlane;fontStyle=0;childLayout=stackLayout;horizontal=1;startSize=30;horizontalStack=0;resizeParent=1;resizeParentMax=0;resizeLast=0;collapsible=1;marginBottom=0;whiteSpace=wrap;html=1;" vertex="1" parent="1">
          <mxGeometry x="-180" y="200" width="140" height="120" as="geometry" />
        </mxCell>
        <mxCell id="2Nm8pulBpNAmHq24tdNc-127" value="Часы работы" style="text;strokeColor=none;fillColor=none;align=left;verticalAlign=middle;spacingLeft=4;spacingRight=4;overflow=hidden;points=[[0,0.5],[1,0.5]];portConstraint=eastwest;rotatable=0;whiteSpace=wrap;html=1;" vertex="1" parent="2Nm8pulBpNAmHq24tdNc-126">
          <mxGeometry y="30" width="140" height="30" as="geometry" />
        </mxCell>
        <mxCell id="2Nm8pulBpNAmHq24tdNc-128" value="Item 2" style="text;strokeColor=none;fillColor=none;align=left;verticalAlign=middle;spacingLeft=4;spacingRight=4;overflow=hidden;points=[[0,0.5],[1,0.5]];portConstraint=eastwest;rotatable=0;whiteSpace=wrap;html=1;" vertex="1" parent="2Nm8pulBpNAmHq24tdNc-126">
          <mxGeometry y="60" width="140" height="30" as="geometry" />
        </mxCell>
        <mxCell id="2Nm8pulBpNAmHq24tdNc-129" value="Item 3" style="text;strokeColor=none;fillColor=none;align=left;verticalAlign=middle;spacingLeft=4;spacingRight=4;overflow=hidden;points=[[0,0.5],[1,0.5]];portConstraint=eastwest;rotatable=0;whiteSpace=wrap;html=1;" vertex="1" parent="2Nm8pulBpNAmHq24tdNc-126">
          <mxGeometry y="90" width="140" height="30" as="geometry" />
        </mxCell>
        <mxCell id="2Nm8pulBpNAmHq24tdNc-130" value="Записи" style="swimlane;fontStyle=0;childLayout=stackLayout;horizontal=1;startSize=30;horizontalStack=0;resizeParent=1;resizeParentMax=0;resizeLast=0;collapsible=1;marginBottom=0;whiteSpace=wrap;html=1;" vertex="1" parent="1">
          <mxGeometry x="-740" y="380" width="140" height="160" as="geometry" />
        </mxCell>
        <mxCell id="2Nm8pulBpNAmHq24tdNc-131" value="unique_id" style="text;strokeColor=none;fillColor=none;align=left;verticalAlign=middle;spacingLeft=4;spacingRight=4;overflow=hidden;points=[[0,0.5],[1,0.5]];portConstraint=eastwest;rotatable=0;whiteSpace=wrap;html=1;" vertex="1" parent="2Nm8pulBpNAmHq24tdNc-130">
          <mxGeometry y="30" width="140" height="30" as="geometry" />
        </mxCell>
        <mxCell id="2Nm8pulBpNAmHq24tdNc-132" value="Имя&lt;br&gt;Номер" style="text;strokeColor=none;fillColor=none;align=left;verticalAlign=middle;spacingLeft=4;spacingRight=4;overflow=hidden;points=[[0,0.5],[1,0.5]];portConstraint=eastwest;rotatable=0;whiteSpace=wrap;html=1;" vertex="1" parent="2Nm8pulBpNAmHq24tdNc-130">
          <mxGeometry y="60" width="140" height="30" as="geometry" />
        </mxCell>
        <mxCell id="2Nm8pulBpNAmHq24tdNc-133" value="Мастер&lt;div&gt;Время&lt;/div&gt;&lt;div&gt;Услуга&lt;/div&gt;" style="text;strokeColor=none;fillColor=none;align=left;verticalAlign=middle;spacingLeft=4;spacingRight=4;overflow=hidden;points=[[0,0.5],[1,0.5]];portConstraint=eastwest;rotatable=0;whiteSpace=wrap;html=1;" vertex="1" parent="2Nm8pulBpNAmHq24tdNc-130">
          <mxGeometry y="90" width="140" height="70" as="geometry" />
        </mxCell>
        <mxCell id="2Nm8pulBpNAmHq24tdNc-134" value="Доступные даты" style="swimlane;fontStyle=0;childLayout=stackLayout;horizontal=1;startSize=30;horizontalStack=0;resizeParent=1;resizeParentMax=0;resizeLast=0;collapsible=1;marginBottom=0;whiteSpace=wrap;html=1;" vertex="1" parent="1">
          <mxGeometry x="-540" y="390" width="140" height="120" as="geometry" />
        </mxCell>
        <mxCell id="2Nm8pulBpNAmHq24tdNc-135" value="Item 1" style="text;strokeColor=none;fillColor=none;align=left;verticalAlign=middle;spacingLeft=4;spacingRight=4;overflow=hidden;points=[[0,0.5],[1,0.5]];portConstraint=eastwest;rotatable=0;whiteSpace=wrap;html=1;" vertex="1" parent="2Nm8pulBpNAmHq24tdNc-134">
          <mxGeometry y="30" width="140" height="30" as="geometry" />
        </mxCell>
        <mxCell id="2Nm8pulBpNAmHq24tdNc-136" value="Item 2" style="text;strokeColor=none;fillColor=none;align=left;verticalAlign=middle;spacingLeft=4;spacingRight=4;overflow=hidden;points=[[0,0.5],[1,0.5]];portConstraint=eastwest;rotatable=0;whiteSpace=wrap;html=1;" vertex="1" parent="2Nm8pulBpNAmHq24tdNc-134">
          <mxGeometry y="60" width="140" height="30" as="geometry" />
        </mxCell>
        <mxCell id="2Nm8pulBpNAmHq24tdNc-137" value="Item 3" style="text;strokeColor=none;fillColor=none;align=left;verticalAlign=middle;spacingLeft=4;spacingRight=4;overflow=hidden;points=[[0,0.5],[1,0.5]];portConstraint=eastwest;rotatable=0;whiteSpace=wrap;html=1;" vertex="1" parent="2Nm8pulBpNAmHq24tdNc-134">
          <mxGeometry y="90" width="140" height="30" as="geometry" />
        </mxCell>
        <mxCell id="2Nm8pulBpNAmHq24tdNc-140" style="edgeStyle=orthogonalEdgeStyle;rounded=0;orthogonalLoop=1;jettySize=auto;html=1;" edge="1" parent="1" source="2Nm8pulBpNAmHq24tdNc-139" target="2Nm8pulBpNAmHq24tdNc-141">
          <mxGeometry relative="1" as="geometry">
            <mxPoint x="440" y="730" as="targetPoint" />
          </mxGeometry>
        </mxCell>
        <mxCell id="2Nm8pulBpNAmHq24tdNc-139" value="Составить рабочий график" style="rounded=1;whiteSpace=wrap;html=1;" vertex="1" parent="1">
          <mxGeometry x="10" y="650" width="120" height="60" as="geometry" />
        </mxCell>
        <mxCell id="2Nm8pulBpNAmHq24tdNc-143" style="edgeStyle=orthogonalEdgeStyle;rounded=0;orthogonalLoop=1;jettySize=auto;html=1;entryX=0;entryY=0.5;entryDx=0;entryDy=0;" edge="1" parent="1" source="2Nm8pulBpNAmHq24tdNc-141" target="2Nm8pulBpNAmHq24tdNc-142">
          <mxGeometry relative="1" as="geometry" />
        </mxCell>
        <mxCell id="2Nm8pulBpNAmHq24tdNc-141" value="Выбрать специалиста" style="rounded=0;whiteSpace=wrap;html=1;" vertex="1" parent="1">
          <mxGeometry x="200" y="650" width="120" height="60" as="geometry" />
        </mxCell>
        <mxCell id="2Nm8pulBpNAmHq24tdNc-146" value="" style="edgeStyle=orthogonalEdgeStyle;rounded=0;orthogonalLoop=1;jettySize=auto;html=1;" edge="1" parent="1" source="2Nm8pulBpNAmHq24tdNc-142" target="2Nm8pulBpNAmHq24tdNc-145">
          <mxGeometry relative="1" as="geometry" />
        </mxCell>
        <mxCell id="2Nm8pulBpNAmHq24tdNc-142" value="Выбрать даты" style="rounded=1;whiteSpace=wrap;html=1;" vertex="1" parent="1">
          <mxGeometry x="370" y="710" width="120" height="60" as="geometry" />
        </mxCell>
        <mxCell id="2Nm8pulBpNAmHq24tdNc-145" value="Выбрать часы&lt;div&gt;...&lt;/div&gt;&lt;div&gt;...&lt;/div&gt;&lt;div&gt;Все&lt;/div&gt;" style="whiteSpace=wrap;html=1;rounded=1;" vertex="1" parent="1">
          <mxGeometry x="580" y="716" width="120" height="67" as="geometry" />
        </mxCell>
      </root>
    </mxGraphModel>
  </diagram>
</mxfile>
